<?xml version="1.0" encoding="UTF-8"?>
<svg width="700pt" height="700pt" version="1.1" viewBox="0 0 700 700" xmlns="http://www.w3.org/2000/svg" xmlns:xlink="http://www.w3.org/1999/xlink">
 <defs>
  <symbol id="u" overflow="visible">
   <path d="m20.609-1.2344c-1.0625 0.55469-2.1719 0.96875-3.3281 1.25-1.1484 0.28125-2.3438 0.42188-3.5938 0.42188-3.7422 0-6.7031-1.0391-8.8906-3.125-2.1797-2.0938-3.2656-4.9258-3.2656-8.5 0-3.582 1.0859-6.4141 3.2656-8.5 2.1875-2.0938 5.1484-3.1406 8.8906-3.1406 1.25 0 2.4453 0.14062 3.5938 0.42188 1.1562 0.27344 2.2656 0.68359 3.3281 1.2344v4.6406c-1.0742-0.72656-2.1328-1.2578-3.1719-1.5938-1.043-0.34375-2.1367-0.51562-3.2812-0.51562-2.0625 0-3.6875 0.66406-4.875 1.9844-1.1797 1.3242-1.7656 3.1484-1.7656 5.4688 0 2.3125 0.58594 4.1328 1.7656 5.4531 1.1875 1.3242 2.8125 1.9844 4.875 1.9844 1.1445 0 2.2383-0.17188 3.2812-0.51562 1.0391-0.34375 2.0977-0.87891 3.1719-1.6094z"/>
  </symbol>
  <symbol id="d" overflow="visible">
   <path d="m15.078-12.25c-0.46875-0.21875-0.9375-0.37891-1.4062-0.48438-0.46094-0.10156-0.92969-0.15625-1.4062-0.15625-1.375 0-2.4375 0.44531-3.1875 1.3281-0.74219 0.88672-1.1094 2.1562-1.1094 3.8125v7.75h-5.3906v-16.828h5.3906v2.7656c0.6875-1.1016 1.4766-1.9062 2.375-2.4062 0.89453-0.50781 1.9688-0.76562 3.2188-0.76562 0.17578 0 0.36719 0.011719 0.57812 0.03125 0.21875 0.011719 0.52344 0.042969 0.92188 0.09375z"/>
  </symbol>
  <symbol id="c" overflow="visible">
   <path d="m19.375-8.4531v1.5312h-12.562c0.125 1.2617 0.57812 2.2109 1.3594 2.8438 0.78125 0.625 1.875 0.9375 3.2812 0.9375 1.125 0 2.2812-0.16406 3.4688-0.5 1.1875-0.33203 2.4062-0.84375 3.6562-1.5312v4.1562c-1.2734 0.48047-2.543 0.83984-3.8125 1.0781-1.2734 0.25-2.543 0.375-3.8125 0.375-3.043 0-5.4062-0.76953-7.0938-2.3125-1.6875-1.5508-2.5312-3.7227-2.5312-6.5156 0-2.75 0.82812-4.9102 2.4844-6.4844 1.6562-1.5703 3.9375-2.3594 6.8438-2.3594 2.6328 0 4.7422 0.79688 6.3281 2.3906 1.5938 1.5938 2.3906 3.7266 2.3906 6.3906zm-5.5312-1.7969c0-1.0195-0.29688-1.8438-0.89062-2.4688s-1.3711-0.9375-2.3281-0.9375c-1.043 0-1.8906 0.29688-2.5469 0.89062-0.64844 0.58594-1.0547 1.4219-1.2188 2.5156z"/>
  </symbol>
  <symbol id="m" overflow="visible">
   <path d="m10.125-7.5781c-1.125 0-1.9688 0.19531-2.5312 0.57812-0.5625 0.38672-0.84375 0.94922-0.84375 1.6875 0 0.67969 0.22266 1.2109 0.67188 1.5938 0.45703 0.38672 1.0938 0.57812 1.9062 0.57812 1.0078 0 1.8594-0.35938 2.5469-1.0781 0.69531-0.72656 1.0469-1.6406 1.0469-2.7344v-0.625zm8.2188-2.0156v9.5938h-5.4219v-2.5c-0.71875 1.0234-1.5312 1.7656-2.4375 2.2344-0.89844 0.46875-1.9922 0.70312-3.2812 0.70312-1.75 0-3.168-0.50391-4.25-1.5156-1.0859-1.0195-1.625-2.3438-1.625-3.9688 0-1.9688 0.67578-3.4102 2.0312-4.3281 1.3516-0.92578 3.4844-1.3906 6.3906-1.3906h3.1719v-0.42188c0-0.85156-0.33984-1.4766-1.0156-1.875-0.66797-0.39453-1.7148-0.59375-3.1406-0.59375-1.1484 0-2.2148 0.11719-3.2031 0.34375-0.99219 0.23047-1.9141 0.57812-2.7656 1.0469v-4.1094c1.1445-0.28125 2.2969-0.49219 3.4531-0.64062 1.1641-0.14453 2.332-0.21875 3.5-0.21875 3.0312 0 5.2188 0.60156 6.5625 1.7969 1.3516 1.1992 2.0312 3.1484 2.0312 5.8438z"/>
  </symbol>
  <symbol id="b" overflow="visible">
   <path d="m8.4531-21.609v4.7812h5.5469v3.8438h-5.5469v7.1406c0 0.78125 0.15625 1.3125 0.46875 1.5938 0.3125 0.27344 0.92578 0.40625 1.8438 0.40625h2.7656v3.8438h-4.6094c-2.125 0-3.6328-0.44141-4.5156-1.3281-0.88672-0.88281-1.3281-2.3906-1.3281-4.5156v-7.1406h-2.6719v-3.8438h2.6719v-4.7812z"/>
  </symbol>
  <symbol id="l" overflow="visible">
   <path d="m14.031-14.359v-9.0156h5.4062v23.375h-5.4062v-2.4375c-0.74219 0.99219-1.5586 1.7188-2.4531 2.1875-0.88672 0.45703-1.918 0.6875-3.0938 0.6875-2.0742 0-3.7773-0.82031-5.1094-2.4688-1.3359-1.6445-2-3.7656-2-6.3594s0.66406-4.7109 2-6.3594c1.332-1.6562 3.0352-2.4844 5.1094-2.4844 1.1641 0 2.1953 0.23438 3.0938 0.70312 0.89453 0.46875 1.7109 1.1953 2.4531 2.1719zm-3.5469 10.891c1.1562 0 2.0352-0.42188 2.6406-1.2656 0.60156-0.84375 0.90625-2.0625 0.90625-3.6562 0-1.6016-0.30469-2.8281-0.90625-3.6719-0.60547-0.84375-1.4844-1.2656-2.6406-1.2656-1.1484 0-2.0234 0.42188-2.625 1.2656-0.60547 0.84375-0.90625 2.0703-0.90625 3.6719 0 1.5938 0.30078 2.8125 0.90625 3.6562 0.60156 0.84375 1.4766 1.2656 2.625 1.2656z"/>
  </symbol>
  <symbol id="k" overflow="visible">
   <path d="m11.531-3.4688c1.1562 0 2.0352-0.42188 2.6406-1.2656 0.60156-0.84375 0.90625-2.0625 0.90625-3.6562 0-1.6016-0.30469-2.8281-0.90625-3.6719-0.60547-0.84375-1.4844-1.2656-2.6406-1.2656-1.1484 0-2.0273 0.42969-2.6406 1.2812-0.61719 0.84375-0.92188 2.0625-0.92188 3.6562 0 1.5859 0.30469 2.8047 0.92188 3.6562 0.61328 0.84375 1.4922 1.2656 2.6406 1.2656zm-3.5625-10.891c0.73828-0.97656 1.5547-1.7031 2.4531-2.1719 0.90625-0.46875 1.9414-0.70312 3.1094-0.70312 2.0703 0 3.7734 0.82812 5.1094 2.4844 1.332 1.6484 2 3.7656 2 6.3594s-0.66797 4.7148-2 6.3594c-1.3359 1.6484-3.0391 2.4688-5.1094 2.4688-1.168 0-2.2031-0.23438-3.1094-0.70312-0.89844-0.46875-1.7148-1.1914-2.4531-2.1719v2.4375h-5.3906v-23.375h5.3906z"/>
  </symbol>
  <symbol id="j" overflow="visible">
   <path d="m0.375-16.828h5.375l4.5312 11.422 3.8438-11.422h5.375l-7.0781 18.422c-0.71094 1.875-1.5391 3.1797-2.4844 3.9219-0.94922 0.75-2.1992 1.125-3.75 1.125h-3.1094v-3.5312h1.6875c0.90625 0 1.5664-0.14844 1.9844-0.4375 0.41406-0.29297 0.73828-0.8125 0.96875-1.5625l0.15625-0.46875z"/>
  </symbol>
  <symbol id="i" overflow="visible">
   <path d="m2.8281-22.422h5.7812v22.422h-5.7812z"/>
  </symbol>
  <symbol id="h" overflow="visible">
   <path d="m16.172-16.297v4.3906c-0.73047-0.5-1.4648-0.86719-2.2031-1.1094-0.73047-0.25-1.4922-0.375-2.2812-0.375-1.5 0-2.6719 0.44531-3.5156 1.3281-0.83594 0.875-1.25 2.1016-1.25 3.6719 0 1.5742 0.41406 2.7969 1.25 3.6719 0.84375 0.875 2.0156 1.3125 3.5156 1.3125 0.84375 0 1.6406-0.125 2.3906-0.375 0.75781-0.25 1.457-0.61719 2.0938-1.1094v4.3906c-0.83594 0.3125-1.6875 0.54688-2.5625 0.70312-0.86719 0.15625-1.7305 0.23438-2.5938 0.23438-3.043 0-5.418-0.77344-7.125-2.3281-1.7109-1.5625-2.5625-3.7266-2.5625-6.5 0-2.7812 0.85156-4.9453 2.5625-6.5 1.707-1.5625 4.082-2.3438 7.125-2.3438 0.875 0 1.7383 0.078125 2.5938 0.23438 0.86328 0.15625 1.7188 0.39062 2.5625 0.70312z"/>
  </symbol>
  <symbol id="a" overflow="visible">
   <path d="m10.594-13.391c-1.1992 0-2.1094 0.43359-2.7344 1.2969-0.625 0.85547-0.9375 2.0898-0.9375 3.7031 0 1.6055 0.3125 2.8398 0.9375 3.7031 0.625 0.85547 1.5352 1.2812 2.7344 1.2812 1.1641 0 2.0625-0.42578 2.6875-1.2812 0.625-0.86328 0.9375-2.0977 0.9375-3.7031 0-1.6133-0.3125-2.8477-0.9375-3.7031-0.625-0.86328-1.5234-1.2969-2.6875-1.2969zm0-3.8438c2.8945 0 5.1562 0.78125 6.7812 2.3438s2.4375 3.7305 2.4375 6.5c0 2.7617-0.8125 4.9219-2.4375 6.4844s-3.8867 2.3438-6.7812 2.3438c-2.9062 0-5.1797-0.78125-6.8125-2.3438-1.6367-1.5625-2.4531-3.7227-2.4531-6.4844 0-2.7695 0.81641-4.9375 2.4531-6.5 1.6328-1.5625 3.9062-2.3438 6.8125-2.3438z"/>
  </symbol>
  <symbol id="g" overflow="visible">
   <path d="m19.5-10.25v10.25h-5.4062v-7.8438c0-1.4453-0.039062-2.4453-0.10938-3-0.0625-0.55078-0.17188-0.95703-0.32812-1.2188-0.21094-0.35156-0.49609-0.625-0.85938-0.8125-0.35547-0.19531-0.76562-0.29688-1.2344-0.29688-1.1172 0-1.9961 0.43359-2.6406 1.2969-0.63672 0.86719-0.95312 2.0625-0.95312 3.5938v8.2812h-5.3906v-16.828h5.3906v2.4688c0.80078-0.97656 1.6562-1.7031 2.5625-2.1719 0.91406-0.46875 1.9258-0.70312 3.0312-0.70312 1.9453 0 3.4219 0.60156 4.4219 1.7969 1.0078 1.1875 1.5156 2.918 1.5156 5.1875z"/>
  </symbol>
  <symbol id="f" overflow="visible">
   <path d="m15.734-16.297v4.0781c-1.1562-0.47656-2.2734-0.83594-3.3438-1.0781-1.0742-0.23828-2.0859-0.35938-3.0312-0.35938-1.0234 0-1.7812 0.13281-2.2812 0.39062-0.49219 0.25-0.73438 0.64062-0.73438 1.1719 0 0.42969 0.1875 0.76172 0.5625 1 0.375 0.23047 1.0469 0.39844 2.0156 0.5l0.95312 0.14062c2.75 0.34375 4.5977 0.91797 5.5469 1.7188 0.95703 0.80469 1.4375 2.0625 1.4375 3.7812 0 1.793-0.66406 3.1406-1.9844 4.0469-1.3242 0.89844-3.2969 1.3438-5.9219 1.3438-1.1172 0-2.2656-0.089844-3.4531-0.26562-1.1875-0.17578-2.4062-0.4375-3.6562-0.78125v-4.0938c1.0703 0.52344 2.1719 0.91406 3.2969 1.1719 1.125 0.26172 2.2695 0.39062 3.4375 0.39062 1.0508 0 1.8438-0.14453 2.375-0.4375 0.53125-0.28906 0.79688-0.72266 0.79688-1.2969 0-0.47656-0.18359-0.83203-0.54688-1.0625-0.36719-0.23828-1.0938-0.42188-2.1875-0.54688l-0.95312-0.125c-2.3867-0.30078-4.0625-0.85938-5.0312-1.6719-0.96094-0.8125-1.4375-2.0391-1.4375-3.6875 0-1.7812 0.60938-3.1016 1.8281-3.9688 1.2188-0.86328 3.0938-1.2969 5.625-1.2969 0.98828 0 2.0312 0.078125 3.125 0.23438 1.0938 0.14844 2.2812 0.38281 3.5625 0.70312z"/>
  </symbol>
  <symbol id="t" overflow="visible">
   <path d="m22.984-1.6719c-1.4375 0.71094-2.9375 1.2422-4.5 1.5938-1.5547 0.34375-3.1523 0.51562-4.7969 0.51562-3.7422 0-6.7031-1.0391-8.8906-3.125-2.1797-2.0938-3.2656-4.9258-3.2656-8.5 0-3.6133 1.1094-6.457 3.3281-8.5312 2.2266-2.0703 5.2734-3.1094 9.1406-3.1094 1.4883 0 2.9141 0.14062 4.2812 0.42188 1.375 0.27344 2.6641 0.68359 3.875 1.2344v4.6406c-1.25-0.70703-2.4961-1.2344-3.7344-1.5781-1.2422-0.35156-2.4805-0.53125-3.7188-0.53125-2.3047 0-4.0781 0.64844-5.3281 1.9375-1.2422 1.2812-1.8594 3.1211-1.8594 5.5156 0 2.375 0.59766 4.2109 1.7969 5.5 1.1953 1.293 2.9062 1.9375 5.125 1.9375 0.60156 0 1.1602-0.035156 1.6719-0.10938 0.51953-0.082031 0.98438-0.20312 1.3906-0.35938v-4.3594h-3.5312v-3.875h9.0156z"/>
  </symbol>
  <symbol id="e" overflow="visible">
   <path d="m19.5-10.25v10.25h-5.4062v-7.8125c0-1.4688-0.039062-2.4766-0.10938-3.0312-0.0625-0.55078-0.17188-0.95703-0.32812-1.2188-0.21094-0.35156-0.49609-0.625-0.85938-0.8125-0.35547-0.19531-0.76562-0.29688-1.2344-0.29688-1.1172 0-1.9961 0.43359-2.6406 1.2969-0.63672 0.86719-0.95312 2.0625-0.95312 3.5938v8.2812h-5.3906v-23.375h5.3906v9.0156c0.80078-0.97656 1.6562-1.7031 2.5625-2.1719 0.91406-0.46875 1.9258-0.70312 3.0312-0.70312 1.9453 0 3.4219 0.60156 4.4219 1.7969 1.0078 1.1875 1.5156 2.918 1.5156 5.1875z"/>
  </symbol>
  <symbol id="s" overflow="visible">
   <path d="m13.656-23.375v3.5312h-2.9688c-0.76172 0-1.293 0.14062-1.5938 0.42188-0.30469 0.27344-0.45312 0.74609-0.45312 1.4219v1.1719h4.5938v3.8438h-4.5938v12.984h-5.375v-12.984h-2.6875v-3.8438h2.6875v-1.1719c0-1.832 0.50781-3.1875 1.5312-4.0625 1.0195-0.875 2.6016-1.3125 4.75-1.3125z"/>
  </symbol>
  <symbol id="r" overflow="visible">
   <path d="m18.172-14.031c0.6875-1.0391 1.4922-1.832 2.4219-2.375 0.9375-0.55078 1.9688-0.82812 3.0938-0.82812 1.9375 0 3.4102 0.60156 4.4219 1.7969 1.0078 1.1875 1.5156 2.918 1.5156 5.1875v10.25h-5.4062v-8.7656c0.007812-0.13281 0.015625-0.26953 0.015625-0.40625 0.007813-0.14453 0.015625-0.34766 0.015625-0.60938 0-1.1875-0.17969-2.0469-0.53125-2.5781-0.35547-0.53906-0.92188-0.8125-1.7031-0.8125-1.0234 0-1.8086 0.42188-2.3594 1.2656-0.55469 0.83594-0.83984 2.0469-0.85938 3.6406v8.2656h-5.4062v-8.7656c0-1.8633-0.16406-3.0625-0.48438-3.5938-0.32422-0.53906-0.89844-0.8125-1.7188-0.8125-1.0312 0-1.8281 0.42188-2.3906 1.2656-0.55469 0.84375-0.82812 2.0547-0.82812 3.625v8.2812h-5.4219v-16.828h5.4219v2.4688c0.65625-0.94531 1.4102-1.6602 2.2656-2.1406 0.85156-0.48828 1.7969-0.73438 2.8281-0.73438 1.1641 0 2.1914 0.28125 3.0781 0.84375 0.89453 0.5625 1.5703 1.3516 2.0312 2.3594z"/>
  </symbol>
  <symbol id="q" overflow="visible">
   <path d="m2.8281-22.422h6.4531l8.1562 15.375v-15.375h5.4844v22.422h-6.4531l-8.1562-15.391v15.391h-5.4844z"/>
  </symbol>
  <symbol id="p" overflow="visible">
   <path d="m2.4062-6.5469v-10.281h5.4062v1.6875c0 0.90625-0.007812 2.0547-0.015625 3.4375-0.011719 1.375-0.015625 2.293-0.015625 2.75 0 1.3555 0.03125 2.3281 0.09375 2.9219 0.070312 0.59375 0.19531 1.0273 0.375 1.2969 0.21875 0.35547 0.50391 0.625 0.85938 0.8125 0.35156 0.1875 0.75781 0.28125 1.2188 0.28125 1.125 0 2.0039-0.42578 2.6406-1.2812 0.64453-0.86328 0.96875-2.0625 0.96875-3.5938v-8.3125h5.375v16.828h-5.375v-2.4375c-0.8125 0.98047-1.6719 1.7031-2.5781 2.1719s-1.9023 0.70312-2.9844 0.70312c-1.9492 0-3.4336-0.59375-4.4531-1.7812-1.0117-1.1953-1.5156-2.9297-1.5156-5.2031z"/>
  </symbol>
  <symbol id="o" overflow="visible">
   <path d="m2.8281-22.422h9.5938c2.8516 0 5.0391 0.63672 6.5625 1.9062 1.5312 1.2617 2.2969 3.0625 2.2969 5.4062 0 2.3555-0.76562 4.168-2.2969 5.4375-1.5234 1.2617-3.7109 1.8906-6.5625 1.8906h-3.8125v7.7812h-5.7812zm5.7812 4.1875v6.2656h3.2031c1.1133 0 1.9766-0.26953 2.5938-0.8125 0.61328-0.55078 0.92188-1.3281 0.92188-2.3281s-0.30859-1.7695-0.92188-2.3125c-0.61719-0.53906-1.4805-0.8125-2.5938-0.8125z"/>
  </symbol>
  <symbol id="n" overflow="visible">
   <path d="m2.5781-16.828h5.3906v16.531c0 2.25-0.54297 3.9688-1.625 5.1562-1.0859 1.1875-2.6523 1.7812-4.7031 1.7812h-2.6562v-3.5312h0.92188c1.0195 0 1.7188-0.23047 2.0938-0.6875 0.38281-0.46094 0.57812-1.3672 0.57812-2.7188zm0-6.5469h5.3906v4.3906h-5.3906z"/>
  </symbol>
 </defs>
 <g>
  <path d="m587.05 38.078c-16.203-12.105-29.988 0.57812-42.586 9.7344-32.91 24-52.395 58.977-73.367 92.523-25.273 40.441-50.793 80.504-91.891 106.9 4.4492-24.449 4.4141-24.492 32.789-55.473 35.195-38.398 65.371-79.543 74.93-132.47 3.6914-20.43 5.6602-42.586-15.949-52.152-23.508-10.395-31.488 13.629-41.047 27.848-29.168 43.402-41.059 94.012-55.004 143.33-13.039 46.117-32.781 88.879-56.223 130.28-7.082 12.5-15.047 24.34-31.414 30.617-1.7617-34.965 8.0078-66.18 18.457-97.102 12.543-37.113 19.441-74.312 3.9141-112.11-7.8047-18.992-18.395-36.504-43.156-32.965-27.648 3.9219-20.223 26.996-21.035 43.785-1.9648 40.203 11.875 78.137 21.039 116.42 13.906 58.043 1.0234 107.61-40.523 148.96-53.367 53.113-51.797 62.281-105.91 114.65-9.1328 8.8047-36.824 22.773-22.691 37.051 20.918 0 44.867-29.109 61.543-46.281 75.953-78.297 109.69-90.703 212.35-126.09 46.492-16.012 88.426-40.984 129.05-68.109 14.277-9.5586 31.691-21.008 24.727-40.66-7.1875-20.227-27.805-15.094-44.504-13.617-47.895 4.1953-82.473 32.965-115.24 64.148-33.527 31.891-66.598 64.234-105.51 89.699-4.9531 3.2422-9.9336 9.7109-19.656 2.6328 94.535-91.133 169.1-202.68 289.36-265.57 28.574-14.953 50.898-38.387 63.391-68.703 6.5117-15.777 10.961-34.715-5.8398-47.281z"/>
  <use x="70" y="652.308594" xlink:href="#u"/>
  <use x="92.582031" y="652.308594" xlink:href="#d"/>
  <use x="107.753906" y="652.308594" xlink:href="#c"/>
  <use x="128.625" y="652.308594" xlink:href="#m"/>
  <use x="149.386719" y="652.308594" xlink:href="#b"/>
  <use x="164.09375" y="652.308594" xlink:href="#c"/>
  <use x="184.964844" y="652.308594" xlink:href="#l"/>
  <use x="217.703125" y="652.308594" xlink:href="#k"/>
  <use x="239.726562" y="652.308594" xlink:href="#j"/>
  <use x="270.496094" y="652.308594" xlink:href="#i"/>
  <use x="281.945312" y="652.308594" xlink:href="#h"/>
  <use x="300.183594" y="652.308594" xlink:href="#a"/>
  <use x="321.320312" y="652.308594" xlink:href="#g"/>
  <use x="343.226562" y="652.308594" xlink:href="#f"/>
  <use x="361.542969" y="652.308594" xlink:href="#t"/>
  <use x="386.796875" y="652.308594" xlink:href="#e"/>
  <use x="408.703125" y="652.308594" xlink:href="#a"/>
  <use x="429.839844" y="652.308594" xlink:href="#f"/>
  <use x="448.15625" y="652.308594" xlink:href="#b"/>
  <use x="70" y="683.078125" xlink:href="#s"/>
  <use x="83.386719" y="683.078125" xlink:href="#d"/>
  <use x="98.5625" y="683.078125" xlink:href="#a"/>
  <use x="119.699219" y="683.078125" xlink:href="#r"/>
  <use x="162.472656" y="683.078125" xlink:href="#b"/>
  <use x="177.179688" y="683.078125" xlink:href="#e"/>
  <use x="199.085937" y="683.078125" xlink:href="#c"/>
  <use x="230.667969" y="683.078125" xlink:href="#q"/>
  <use x="256.417969" y="683.078125" xlink:href="#a"/>
  <use x="277.558594" y="683.078125" xlink:href="#p"/>
  <use x="299.460938" y="683.078125" xlink:href="#g"/>
  <use x="332.078125" y="683.078125" xlink:href="#o"/>
  <use x="354.628906" y="683.078125" xlink:href="#d"/>
  <use x="369.804688" y="683.078125" xlink:href="#a"/>
  <use x="390.945312" y="683.078125" xlink:href="#n"/>
  <use x="401.492187" y="683.078125" xlink:href="#c"/>
  <use x="422.359375" y="683.078125" xlink:href="#h"/>
  <use x="440.597656" y="683.078125" xlink:href="#b"/>
 </g>
</svg>
